<?xml version="1.0" standalone="no"?>
<!DOCTYPE svg PUBLIC "-//W3C//DTD SVG 20010904//EN"
 "http://www.w3.org/TR/2001/REC-SVG-20010904/DTD/svg10.dtd">
<svg version="1.0" xmlns="http://www.w3.org/2000/svg"
 width="128.000000pt" height="128.000000pt" viewBox="0 0 128.000000 128.000000"
 preserveAspectRatio="xMidYMid meet">

<g transform="translate(0.000000,128.000000) scale(0.100000,-0.100000)"
fill="#f0eef1" stroke="none">
<path d="M1134 1266 c-11 -28 0 -61 21 -61 16 0 20 7 20 35 0 25 -5 36 -18 38
-9 2 -20 -3 -23 -12z"/>
<path d="M1034 1165 c-9 -23 9 -37 42 -33 21 2 29 8 29 23 0 26 -62 35 -71 10z"/>
<path d="M1204 1165 c-9 -23 9 -37 42 -33 21 2 29 8 29 23 0 26 -62 35 -71 10z"/>
<path d="M488 1121 c-159 -52 -282 -177 -329 -333 -28 -92 -23 -244 10 -330
48 -124 164 -240 289 -290 49 -19 75 -23 182 -23 107 0 133 4 182 23 31 13 68
32 82 43 45 35 7 68 -39 33 -38 -28 -144 -54 -225 -54 -256 0 -450 194 -450
450 0 255 193 449 446 450 260 0 454 -192 454 -450 0 -81 -26 -187 -54 -225
-35 -46 -2 -84 33 -39 11 14 30 51 43 82 19 49 23 75 23 182 0 107 -4 133 -23
182 -50 125 -166 241 -290 289 -81 32 -253 37 -334 10z"/>
<path d="M1134 1096 c-11 -28 0 -61 21 -61 16 0 20 7 20 35 0 25 -5 36 -18 38
-9 2 -20 -3 -23 -12z"/>
<path d="M452 788 c-23 -12 -39 -49 -27 -67 10 -18 34 -12 46 11 l11 21 18
-23 c20 -27 50 -21 50 9 0 20 -44 62 -64 60 -6 0 -21 -5 -34 -11z"/>
<path d="M772 783 c-20 -17 -26 -33 -23 -60 2 -21 38 -15 44 7 3 11 10 20 15
20 6 0 14 -9 17 -20 7 -22 44 -28 46 -7 4 39 -26 77 -61 77 -10 0 -27 -8 -38
-17z"/>
<path d="M507 538 c-5 -17 9 -65 28 -94 40 -62 150 -72 206 -18 35 33 58 99
41 116 -16 16 -42 2 -42 -22 0 -34 -53 -80 -92 -80 -46 0 -75 23 -89 70 -12
40 -42 56 -52 28z"/>
<path d="M955 310 c-9 -15 4 -30 26 -30 12 0 19 7 19 20 0 21 -33 29 -45 10z"/>
<path d="M104 236 c-11 -28 0 -61 21 -61 16 0 20 7 20 35 0 25 -5 36 -18 38
-9 2 -20 -3 -23 -12z"/>
<path d="M4 135 c-9 -23 9 -37 42 -33 21 2 29 8 29 23 0 26 -62 35 -71 10z"/>
<path d="M174 135 c-9 -23 9 -37 42 -33 21 2 29 8 29 23 0 26 -62 35 -71 10z"/>
<path d="M104 66 c-11 -28 0 -61 21 -61 16 0 20 7 20 35 0 25 -5 36 -18 38 -9
2 -20 -3 -23 -12z"/>
</g>
</svg>
