<?xml version="1.0" standalone="no"?>
<!DOCTYPE svg PUBLIC "-//W3C//DTD SVG 20010904//EN"
 "http://www.w3.org/TR/2001/REC-SVG-20010904/DTD/svg10.dtd">
<svg version="1.0" xmlns="http://www.w3.org/2000/svg"
 width="128.000000pt" height="128.000000pt" viewBox="0 0 128.000000 128.000000"
 preserveAspectRatio="xMidYMid meet">

<g transform="translate(0.000000,128.000000) scale(0.100000,-0.100000)"
fill="#f0eef1"  stroke="none">
<path d="M506 1264 c-179 -35 -353 -169 -435 -334 -239 -485 177 -1025 704
-915 304 64 523 356 501 668 -11 162 -104 363 -147 320 -6 -6 5 -38 31 -89
120 -237 80 -503 -105 -688 -197 -200 -501 -231 -737 -78 -313 205 -358 641
-93 907 184 184 455 226 689 105 56 -29 82 -38 90 -30 19 19 -7 43 -85 83
-128 64 -265 81 -413 51z"/>
<path d="M1050 1071 c0 -24 25 -34 40 -16 15 18 5 35 -21 35 -12 0 -19 -7 -19
-19z"/>
<path d="M242 688 c5 -35 72 -68 138 -68 66 0 133 33 138 68 4 28 -16 29 -60
2 -20 -12 -51 -20 -78 -20 -27 0 -58 8 -78 20 -44 27 -64 26 -60 -2z"/>
<path d="M767 703 c-16 -15 -4 -34 38 -59 39 -23 54 -26 108 -22 70 4 127 35
127 69 0 24 -21 24 -62 -1 -43 -26 -113 -26 -153 0 -31 21 -47 24 -58 13z"/>
<path d="M536 444 c-54 -19 -106 -61 -106 -85 0 -26 24 -24 63 4 53 39 91 50
166 45 59 -3 77 -9 116 -36 52 -37 75 -40 75 -13 0 25 -53 66 -109 86 -54 19
-153 18 -205 -1z"/>
</g>
</svg>
