<?xml version="1.0" standalone="no"?>
<!DOCTYPE svg PUBLIC "-//W3C//DTD SVG 20010904//EN"
 "http://www.w3.org/TR/2001/REC-SVG-20010904/DTD/svg10.dtd">
<svg version="1.0" xmlns="http://www.w3.org/2000/svg"
 width="128.000000pt" height="128.000000pt" viewBox="0 0 128.000000 128.000000"
 preserveAspectRatio="xMidYMid meet">

<g transform="translate(0.000000,128.000000) scale(0.100000,-0.100000)"
fill="#f0eef1"  stroke="none">
<path d="M500 1265 c-109 -24 -224 -88 -310 -175 -253 -252 -253 -648 0 -900
252 -253 648 -253 900 0 253 252 253 648 0 900 -156 157 -373 221 -590 175z
m285 -80 c92 -24 174 -73 250 -150 115 -115 165 -234 165 -395 0 -161 -50
-280 -165 -395 -115 -115 -234 -165 -395 -165 -161 0 -280 50 -395 165 -115
115 -165 234 -165 395 0 161 50 280 165 395 75 75 157 125 246 149 72 20 220
20 294 1z"/>
<path d="M330 898 c-73 -37 -116 -152 -65 -172 25 -9 43 4 50 37 10 47 42 77
82 77 39 0 83 -37 83 -69 0 -20 24 -51 40 -51 5 0 16 7 25 16 35 35 -13 135
-79 165 -54 24 -82 24 -136 -3z"/>
<path d="M814 901 c-66 -30 -114 -130 -79 -165 9 -9 20 -16 25 -16 16 0 40 31
40 51 0 32 44 69 83 69 40 0 72 -30 82 -77 7 -33 25 -46 50 -37 51 20 8 135
-65 172 -54 27 -82 27 -136 3z"/>
<path d="M276 544 c-23 -22 -20 -33 19 -100 63 -106 159 -173 283 -196 159
-30 334 59 415 210 29 53 29 85 2 96 -25 9 -42 -3 -61 -47 -26 -58 -89 -124
-149 -155 -44 -24 -62 -27 -145 -27 -80 0 -102 4 -140 24 -62 32 -117 87 -147
146 -35 68 -49 77 -77 49z"/>
</g>
</svg>
